<?xml version="1.0" standalone="no"?>
<!DOCTYPE svg PUBLIC "-//W3C//DTD SVG 20010904//EN"
 "http://www.w3.org/TR/2001/REC-SVG-20010904/DTD/svg10.dtd">
<svg version="1.0" xmlns="http://www.w3.org/2000/svg"
 width="500.000000pt" height="500.000000pt" viewBox="0 0 500.000000 500.000000"
 preserveAspectRatio="xMidYMid meet">

<g transform="translate(0.000000,500.000000) scale(0.100000,-0.100000)"
fill="#000000" stroke="none">
<path d="M3243 3408 c3 -7 21 -53 42 -103 32 -77 35 -92 24 -110 -7 -11 -88
-117 -181 -235 l-169 -216 -412 -38 c-227 -21 -464 -42 -527 -48 -193 -16
-490 8 -572 48 -41 19 -42 21 -29 77 l9 37 -49 0 c-38 0 -51 -4 -59 -20 -11
-20 -12 -20 -53 12 -78 62 -222 190 -379 340 l-158 149 -75 -16 c-41 -9 -75
-18 -75 -20 0 -2 94 -173 210 -380 116 -208 210 -379 210 -381 0 -2 -9 -4 -21
-4 -17 0 -20 -5 -17 -32 l3 -33 -185 -47 c-349 -90 -535 -140 -552 -149 -23
-12 -23 -36 -1 -47 10 -5 44 -12 75 -16 50 -5 99 4 404 79 l348 85 140 -51
c242 -88 348 -120 436 -130 47 -5 100 -12 118 -15 18 -4 96 -9 172 -13 l140
-6 -635 -208 -635 -208 -73 57 c-68 53 -74 56 -116 50 -24 -3 -57 -6 -73 -6
-28 0 -23 -7 84 -112 l113 -113 80 -3 c80 -4 85 -2 850 227 709 212 770 229
787 215 16 -15 19 -15 33 0 9 9 25 16 36 16 18 0 18 -1 -1 -32 -20 -34 -18
-51 5 -42 8 4 30 -11 52 -34 33 -34 46 -40 95 -46 32 -4 117 -4 190 0 174 9
216 29 253 118 28 67 -1 157 -58 181 -18 8 -25 14 -17 15 8 0 74 7 145 14 72
8 202 20 290 26 487 34 978 88 1065 117 112 37 269 145 271 186 3 59 -5 67
-126 138 -135 78 -149 84 -290 119 l-130 33 -205 -7 c-195 -6 -528 -28 -634
-42 -39 -5 -48 -4 -44 7 3 8 37 105 77 216 l72 202 -78 105 -78 105 -64 1
c-47 0 -62 -3 -58 -12z"/>
</g>
</svg>
